<?xml version="1.0" encoding="utf-8"?>
<!-- Generator: Adobe Illustrator 23.0.0, SVG Export Plug-In . SVG Version: 6.00 Build 0)  -->
<svg version="1.1" id="Layer_1" xmlns="http://www.w3.org/2000/svg" xmlns:xlink="http://www.w3.org/1999/xlink" x="0px" y="0px"
	 viewBox="0 0 708.1 114.4" style="enable-background:new 0 0 708.1 114.4;" xml:space="preserve">
<style type="text/css">
	.st0{display:none;}
	.st1{display:inline;}
	.st2{font-family:'Orbitron-Black';}
	.st3{font-size:120px;}
	.st4{letter-spacing:-3;}
	.st5{fill:#ED1C24;}
	.st6{fill:url(#SVGID_1_);}
	.st7{fill:url(#SVGID_2_);}
	.st8{fill:url(#SVGID_3_);}
	.st9{fill:url(#SVGID_4_);}
	.st10{fill:url(#SVGID_5_);}
	.st11{fill:url(#SVGID_6_);}
	.st12{fill:url(#SVGID_7_);}
	.st13{fill:url(#SVGID_8_);}
	.st14{fill:url(#Left_line_2_);}
	.st15{fill:url(#Right_line_2_);}
	.st16{fill:url(#SVGID_9_);}
	.st17{fill:url(#SVGID_10_);}
	.st18{fill:url(#SVGID_11_);}
</style>
<g id="logo_1_" class="st0">
	<text transform="matrix(1 0 0 1 -1.0883 49.7718)" class="st1 st2 st3 st4">e</text>
	<text transform="matrix(1 0 0 1 72.4697 49.7718)" class="st1 st2 st3 st4">x</text>
	<text transform="matrix(1 0 0 1 151.6677 49.7718)" class="st1 st2 st3">p</text>
	<text transform="matrix(1 0 0 1 230.6268 49.7718)" class="st1 st2 st3 st4">e</text>
	<text transform="matrix(1 0 0 1 303.7047 49.7718)" class="st1 st2 st3">c</text>
	<text transform="matrix(1 0 0 1 386.1447 49.7718)" class="st1 st2 st3">t</text>
	<text transform="matrix(1 0 0 1 462.4647 49.7718)" class="st1 st2 st3 st4">e</text>
	<text transform="matrix(1 0 0 1 535.3027 49.7718)" class="st1 st2 st3 st4">d</text>
	<g id="logo" class="st1">
		<path d="M70.8,63.6H16.7v8.6h40.4V94H16.7v8.5h54.1v21.7H-5c0,0,0-68.7,0-72.1c0-5.9,5.2-10.2,10.4-10.2s65.4,0,65.4,0V63.6z"/>
		<path class="st5" d="M156.5,63.6h-54.1v8.6h40.4V94h-40.4v8.5h54.1v21.7H80.7c0,0,0-68.7,0-72.1c0-5.9,5.2-10.2,10.4-10.2
			c5.1,0,65.4,0,65.4,0V63.6z"/>
		<path d="M165.5,42v7.1l-28.3,33.2l28.3,34.9v7.1h-22.2l-20.1-24.8L103,124.2H80.7v-7.1l28.1-34.9L88.7,58.8l-7.9-9.6v-1.5
			c0,0-0.7-5.6,6.6-5.6s15.6,0,15.6,0l20.1,23.8L143.2,42L165.5,42L165.5,42z"/>
		<path d="M238.2,42c11.3,0,20.5,9.5,20.5,20.5v15.9c0,11.2-9.2,20.5-20.5,20.5l-41.1,0.1c0.3,0,0.4,0.3,0.4,0.9c0,0-0.3,0-0.4-0.1
			v24.4h-21.7c0,0,0-67.4,0-72.1c0-4.7,4.4-10.1,10.3-10.1S238.2,42,238.2,42z M197.1,77.2h40V63.7h-40V77.2z"/>
		<path d="M344.4,63.6h-54.1v8.6h40.4V94h-40.4v8.5h54.1v21.7h-75.8c0,0,0-68.7,0-72.1c0-5.9,5.2-10.2,10.4-10.2s65.4,0,65.4,0V63.6
			z"/>
		<path d="M376.2,63.6v39h61.5v21.7H375c-11.3,0-20.5-9.4-20.5-20.5V62.6c0-11.3,9.2-20.7,20.5-20.7h62.6v21.7L376.2,63.6
			L376.2,63.6z"/>
		<path d="M532.5,42v21.7h-31.6v60.5h-21.8V63.7h-31.3c0,0,0-6.4,0-11.5c0-5.1,4.5-10.1,10.3-10.1C463.9,42,532.5,42,532.5,42z"/>
		<path d="M618.2,63.6h-54.1v8.6h40.4V94h-40.4v8.5h54.1v21.7h-75.8c0,0,0-68.7,0-72.1c0-5.9,5.2-10.2,10.4-10.2
			c5.1,0,65.4,0,65.4,0V63.6z"/>
		<path d="M692.6,41.9c11.2,0,20.5,9.4,20.5,20.7v41.1c0,11.2-9.4,20.5-20.5,20.5h-64.2c0,0,0-67.9,0-72.1c0-4.7,4.2-10.2,10.2-10.2
			S692.6,41.9,692.6,41.9z M650.1,102.5h41.4v-39h-41.4V102.5z"/>
	</g>
</g>
<g id="logo_final" class="st0">
	<g class="st1">
		<rect id="Left_line" x="-5.5" y="8.6" width="311.8" height="1.9"/>
		<rect id="Right_line" x="400.8" y="7.6" width="311.8" height="1.9"/>
		<g id="logo_-_final">
			<path d="M71.3,53.8H17.2v8.6h40.4v21.8H17.2v8.5h54.1v21.7H-4.5c0,0,0-68.7,0-72.1c0-5.9,5.2-10.2,10.4-10.2s65.4,0,65.4,0
				L71.3,53.8L71.3,53.8z"/>
			<path d="M166,32.2v7.1l-28.3,33.2l28.3,34.9v7.1h-22.2l-20.1-24.8l-20.1,24.8H81.2v-7.1l28.1-34.9L89.2,48.9l-7.9-9.6v-1.5
				c0,0-0.7-5.6,6.6-5.6s15.6,0,15.6,0L123.6,56l20.1-23.8L166,32.2L166,32.2z"/>
			<path d="M238.7,32.2c11.3,0,20.5,9.5,20.5,20.5v15.9c0,11.2-9.2,20.5-20.5,20.5l-41.1,0.1c0.3,0,0.4,0.3,0.4,0.9
				c0,0-0.3,0-0.4-0.1v24.4h-21.7c0,0,0-67.4,0-72.1s4.4-10.1,10.3-10.1C192,32.2,238.7,32.2,238.7,32.2z M197.6,67.4h33.9
				c0,0,6.1-0.2,6.1-7.1s-6.4-6.4-6.4-6.4h-33.6V67.4z"/>
			<path d="M344.9,53.8h-54.1v8.6h40.4v21.8h-40.4v8.5h54.1v21.7h-75.8c0,0,0-68.7,0-72.1c0-5.9,5.2-10.2,10.4-10.2s65.4,0,65.4,0
				V53.8z"/>
			<path d="M376.7,53.8v39h61.5v21.7h-62.6c-11.3,0-20.5-9.4-20.5-20.5V52.8c0-11.3,9.2-20.7,20.5-20.7h62.6v21.7L376.7,53.8
				L376.7,53.8z"/>
			<path d="M533,32.2v21.7h-31.6v60.5h-21.8V53.9h-31.3c0,0,0-12.5,0-13c0-4.6,1.1-8.7,8-8.7C456.8,32.2,533,32.2,533,32.2z"/>
			<path d="M618.7,53.8h-54.1v8.6H605v21.8h-40.4v8.5h54.1v21.7h-75.8c0,0,0-68.7,0-72.1c0-5.9,5.2-10.2,10.4-10.2
				c5.1,0,65.4,0,65.4,0V53.8z"/>
			<path d="M693.1,32.1c11.2,0,20.5,9.4,20.5,20.7v41.1c0,11.2-9.4,20.5-20.5,20.5h-64.2c0,0,0-67.9,0-72.1
				c0-4.7,4.2-10.2,10.2-10.2S693.1,32.1,693.1,32.1z M650.6,92.7c0,0,25.2,0,32.2,0s9.2-4,9.2-9.1c0-7.6,0-17.7,0-21
				c0-7-3.5-8.9-9-8.9c-6,0-32.4,0-32.4,0V92.7z"/>
		</g>
		<g id="THE">
			<path d="M343.1,0v4.1h-7.4v14.1h-4.2V4.2h-7.3c0,0,0-2.6,0-3.2c0-0.5,0.3-0.9,1-0.9S343.1,0,343.1,0z"/>
			<path d="M364.1,0v18.3H360v-7.1h-10.8v7.1H345V0h4.1v7.1H360V0H364.1z"/>
			<path d="M382.9,4.1h-12.6v3h9.4v4.2h-9.4v2.9h12.6v4.1h-16.8V0c0,0,15.2,0,15.9,0s0.9,0.5,0.9,0.8C382.9,1,382.9,4.1,382.9,4.1z"
				/>
		</g>
	</g>
</g>
<g id="logo_final_copy">
	<g>
		<linearGradient id="SVGID_1_" gradientUnits="userSpaceOnUse" x1="37.905" y1="32.083" x2="37.905" y2="114.41">
			<stop  offset="0" style="stop-color:#8DC63F"/>
			<stop  offset="1" style="stop-color:#556E2F"/>
		</linearGradient>
		<path class="st6" d="M75.8,53.8H21.7v8.6h40.4v21.8H21.7v8.5h54.1v21.7H0c0,0,0-68.7,0-72.1c0-5.9,5.2-10.2,10.4-10.2
			s65.4,0,65.4,0V53.8z"/>
		<linearGradient id="SVGID_2_" gradientUnits="userSpaceOnUse" x1="128.0895" y1="32.224" x2="128.0895" y2="114.409">
			<stop  offset="0" style="stop-color:#8DC63F"/>
			<stop  offset="1" style="stop-color:#556E2F"/>
		</linearGradient>
		<path class="st7" d="M170.5,32.2v7.1l-28.3,33.2l28.3,34.9v7.1h-22.2l-20.1-24.8L108,114.4H85.7v-7.1l28.1-34.9L93.7,48.9
			l-7.9-9.6v-1.5c0,0-0.7-5.6,6.6-5.6s15.6,0,15.6,0L128.1,56l20.1-23.8L170.5,32.2L170.5,32.2z"/>
		<linearGradient id="SVGID_3_" gradientUnits="userSpaceOnUse" x1="222.046" y1="32.224" x2="222.046" y2="114.41">
			<stop  offset="0" style="stop-color:#8DC63F"/>
			<stop  offset="1" style="stop-color:#556E2F"/>
		</linearGradient>
		<path class="st8" d="M243.2,32.2c11.3,0,20.5,9.5,20.5,20.5v15.9c0,11.2-9.2,20.5-20.5,20.5l-41.1,0.1c0.3,0,0.4,0.3,0.4,0.9
			c0,0-0.3,0-0.4-0.1v24.4h-21.7c0,0,0-67.4,0-72.1s4.4-10.1,10.3-10.1S243.2,32.2,243.2,32.2z M202.1,67.4h33.9
			c0,0,6.1-0.2,6.1-7.1s-6.4-6.4-6.4-6.4h-33.6V67.4z"/>
		<linearGradient id="SVGID_4_" gradientUnits="userSpaceOnUse" x1="311.533" y1="32.083" x2="311.533" y2="114.41">
			<stop  offset="0" style="stop-color:#8DC63F"/>
			<stop  offset="1" style="stop-color:#556E2F"/>
		</linearGradient>
		<path class="st9" d="M349.4,53.8h-54.1v8.6h40.4v21.8h-40.4v8.5h54.1v21.7h-75.8c0,0,0-68.7,0-72.1c0-5.9,5.2-10.2,10.4-10.2
			s65.4,0,65.4,0V53.8z"/>
		<linearGradient id="SVGID_5_" gradientUnits="userSpaceOnUse" x1="396.056" y1="32.082" x2="396.056" y2="114.409">
			<stop  offset="0" style="stop-color:#8DC63F"/>
			<stop  offset="1" style="stop-color:#556E2F"/>
		</linearGradient>
		<path class="st10" d="M432.6,92.7L432.6,92.7h-51.4v-39h51.4h0V32.1H380c-11.3,0-20.5,9.4-20.5,20.7v41.1
			c0,11.2,9.2,20.5,20.5,20.5h52.6h0L432.6,92.7L432.6,92.7z"/>
		<linearGradient id="SVGID_6_" gradientUnits="userSpaceOnUse" x1="485.1075" y1="32.223" x2="485.1075" y2="114.41">
			<stop  offset="0" style="stop-color:#8DC63F"/>
			<stop  offset="1" style="stop-color:#556E2F"/>
		</linearGradient>
		<path class="st11" d="M527.5,32.2v21.7h-31.6v60.5h-21.8V53.9h-31.3c0,0,0-12.5,0-13c0-4.6,1.1-8.7,8-8.7
			C451.3,32.2,527.5,32.2,527.5,32.2z"/>
		<linearGradient id="SVGID_7_" gradientUnits="userSpaceOnUse" x1="575.299" y1="32.083" x2="575.299" y2="114.41">
			<stop  offset="0" style="stop-color:#8DC63F"/>
			<stop  offset="1" style="stop-color:#556E2F"/>
		</linearGradient>
		<path class="st12" d="M613.2,53.8h-54.1v8.6h40.4v21.8h-40.4v8.5h54.1v21.7h-75.8c0,0,0-68.7,0-72.1c0-5.9,5.2-10.2,10.4-10.2
			c5.1,0,65.4,0,65.4,0V53.8z"/>
		<linearGradient id="SVGID_8_" gradientUnits="userSpaceOnUse" x1="665.779" y1="32.082" x2="665.779" y2="114.409">
			<stop  offset="0" style="stop-color:#8DC63F"/>
			<stop  offset="1" style="stop-color:#556E2F"/>
		</linearGradient>
		<path class="st13" d="M687.6,32.1c11.2,0,20.5,9.4,20.5,20.7v41.1c0,11.2-9.4,20.5-20.5,20.5h-64.2c0,0,0-67.9,0-72.1
			c0-4.7,4.2-10.2,10.2-10.2S687.6,32.1,687.6,32.1z M645.1,92.7c0,0,25.2,0,32.2,0s9.2-4,9.2-9.1c0-7.6,0-17.7,0-21
			c0-7-3.5-8.9-9-8.9c-6,0-32.4,0-32.4,0V92.7z"/>
	</g>
	<g>
		<linearGradient id="Left_line_2_" gradientUnits="userSpaceOnUse" x1="153.7345" y1="8.618" x2="153.7345" y2="10.53">
			<stop  offset="0" style="stop-color:#8DC63F"/>
			<stop  offset="1" style="stop-color:#556E2F"/>
		</linearGradient>
		<rect id="Left_line_1_" y="8.6" class="st14" width="307.5" height="1.9"/>
		<linearGradient id="Right_line_2_" gradientUnits="userSpaceOnUse" x1="554.413" y1="7.618" x2="554.413" y2="9.53">
			<stop  offset="0" style="stop-color:#8DC63F"/>
			<stop  offset="1" style="stop-color:#556E2F"/>
		</linearGradient>
		<rect id="Right_line_1_" x="400.7" y="7.6" class="st15" width="307.5" height="1.9"/>
		<g id="THE_1_">
			<linearGradient id="SVGID_9_" gradientUnits="userSpaceOnUse" x1="334.471" y1="3.299713e-02" x2="334.471" y2="18.308">
				<stop  offset="0" style="stop-color:#8DC63F"/>
				<stop  offset="1" style="stop-color:#556E2F"/>
			</linearGradient>
			<path class="st16" d="M343.8,0v4.1h-7.3v14.1h-4.1V4.2h-7.2c0,0,0-2.6,0-3.2c0-0.5,0.3-0.9,1-0.9C326.9,0,343.8,0,343.8,0z"/>
			<linearGradient id="SVGID_10_" gradientUnits="userSpaceOnUse" x1="355.049" y1="3.299713e-02" x2="355.049" y2="18.308">
				<stop  offset="0" style="stop-color:#8DC63F"/>
				<stop  offset="1" style="stop-color:#556E2F"/>
			</linearGradient>
			<path class="st17" d="M364.5,0v18.3h-4.1v-7.1h-10.7v7.1h-4.1V0h4.1v7.1h10.7V0H364.5z"/>
			<linearGradient id="SVGID_11_" gradientUnits="userSpaceOnUse" x1="374.7175" y1="0" x2="374.7175" y2="18.308">
				<stop  offset="0" style="stop-color:#8DC63F"/>
				<stop  offset="1" style="stop-color:#556E2F"/>
			</linearGradient>
			<path class="st18" d="M383,4.1h-12.5v3h9.3v4.2h-9.3v2.9H383v4.1h-16.5V0c0,0,15,0,15.7,0s0.8,0.5,0.8,0.8C383,1,383,4.1,383,4.1
				z"/>
		</g>
	</g>
</g>
</svg>
